HIERARCHY
ROOT Hips
{
	OFFSET 0.00000 0.00000 0.00000
	CHANNELS 6 Xposition Yposition Zposition Zrotation Yrotation Xrotation 
	JOINT LHipJoint
	{
		OFFSET 0 0 0
		CHANNELS 3 Zrotation Yrotation Xrotation
		JOINT LeftUpLeg
		{
			OFFSET 1.48211 -1.84579 0.74791
			CHANNELS 3 Zrotation Yrotation Xrotation
			JOINT LeftLeg
			{
				OFFSET 2.56990 -7.06075 0.00000
				CHANNELS 3 Zrotation Yrotation Xrotation
				JOINT LeftFoot
				{
					OFFSET 2.57933 -7.08667 0.00000
					CHANNELS 3 Zrotation Yrotation Xrotation
					JOINT LeftToeBase
					{
						OFFSET 0.22969 -0.63106 2.10885
						CHANNELS 3 Zrotation Yrotation Xrotation
						End Site
						{
							OFFSET 0.00000 -0.00000 1.10362
						}
					}
				}
			}
		}
	}
	JOINT RHipJoint
	{
		OFFSET 0 0 0
		CHANNELS 3 Zrotation Yrotation Xrotation
		JOINT RightUpLeg
		{
			OFFSET -1.46257 -1.84580 0.74791
			CHANNELS 3 Zrotation Yrotation Xrotation
			JOINT RightLeg
			{
				OFFSET -2.63352 -7.23555 0.00000
				CHANNELS 3 Zrotation Yrotation Xrotation
				JOINT RightFoot
				{
					OFFSET -2.53360 -6.96100 0.00000
					CHANNELS 3 Zrotation Yrotation Xrotation
					JOINT RightToeBase
					{
						OFFSET -0.19079 -0.52420 2.00624
						CHANNELS 3 Zrotation Yrotation Xrotation
						End Site
						{
							OFFSET -0.00000 -0.00000 1.04369
						}
					}
				}
			}
		}
	}
	JOINT LowerBack
	{
		OFFSET 0 0 0
		CHANNELS 3 Zrotation Yrotation Xrotation
		JOINT Spine
		{
			OFFSET -0.02583 2.09021 -0.27313
			CHANNELS 3 Zrotation Yrotation Xrotation
			JOINT Spine1
			{
				OFFSET 0.02621 2.11682 -0.03538
				CHANNELS 3 Zrotation Yrotation Xrotation
				JOINT Neck
				{
					OFFSET 0 0 0
					CHANNELS 3 Zrotation Yrotation Xrotation
					JOINT Neck1
					{
						OFFSET 0.02848 1.69944 0.27193
						CHANNELS 3 Zrotation Yrotation Xrotation
						JOINT Head
						{
							OFFSET -0.09826 1.73070 -0.26626
							CHANNELS 3 Zrotation Yrotation Xrotation
							End Site
							{
								OFFSET -0.03061 1.75878 -0.12207
							}
						}
					}
				}
				JOINT LeftShoulder
				{
					OFFSET 0 0 0
					CHANNELS 3 Zrotation Yrotation Xrotation
					JOINT LeftArm
					{
						OFFSET 3.42696 0.97228 -0.33778
						CHANNELS 3 Zrotation Yrotation Xrotation
						JOINT LeftForeArm
						{
							OFFSET 5.25525 -0.00000 0.00000
							CHANNELS 3 Zrotation Yrotation Xrotation
							JOINT LeftHand
							{
								OFFSET 3.35106 -0.00000 0.00000
								CHANNELS 3 Zrotation Yrotation Xrotation
								JOINT LeftFingerBase
								{
									OFFSET 0 0 0
									CHANNELS 3 Zrotation Yrotation Xrotation
									JOINT LeftHandIndex1
									{
										OFFSET 0.57415 -0.00000 0.00000
										CHANNELS 3 Zrotation Yrotation Xrotation
										End Site
										{
											OFFSET 0.46290 -0.00000 0.00000
										}
									}
								}
								JOINT LThumb
								{
									OFFSET 0 0 0
									CHANNELS 3 Zrotation Yrotation Xrotation
									End Site
									{
										OFFSET 0.46996 -0.00000 0.46996
									}
								}
							}
						}
					}
				}
				JOINT RightShoulder
				{
					OFFSET 0 0 0
					CHANNELS 3 Zrotation Yrotation Xrotation
					JOINT RightArm
					{
						OFFSET -3.28720 1.02454 -0.32654
						CHANNELS 3 Zrotation Yrotation Xrotation
						JOINT RightForeArm
						{
							OFFSET -5.33104 -0.00000 0.00000
							CHANNELS 3 Zrotation Yrotation Xrotation
							JOINT RightHand
							{
								OFFSET -3.39883 -0.00000 0.00000
								CHANNELS 3 Zrotation Yrotation Xrotation
								JOINT RightFingerBase
								{
									OFFSET 0 0 0
									CHANNELS 3 Zrotation Yrotation Xrotation
									JOINT RightHandIndex1
									{
										OFFSET -0.91389 -0.00000 0.00000
										CHANNELS 3 Zrotation Yrotation Xrotation
										End Site
										{
											OFFSET -0.73680 -0.00000 0.00000
										}
									}
								}
								JOINT RThumb
								{
									OFFSET 0 0 0
									CHANNELS 3 Zrotation Yrotation Xrotation
									End Site
									{
										OFFSET -0.74805 -0.00000 0.74805
									}
								}
							}
						}
					}
				}
			}
		}
	}
}
MOTION
Frames: 14
Frame Time: 0.0138889
0.00 0.00 0.00 0 0 0 0 0 0 -21 0 0 0 0 0 0 0 0 0 0 0 0 0 0 21 0 0 0 0 0 0 0 0 0 0 0 0 0 0 0 0 0 0 0 0 0 0 -16 0 0 21 0 0 11 0 0 0 -8 0 0 0 0 0 0 0 0 0 0 0 0 0 0 0 0 0 0 0 0 8 0 0 0 0 0 0 0 0 0 0 0 0 0 0 0 0 0
0.00 0.00 0.00 -177.4510 -10.8445 174.0420 0.0000 0.0000 0.0000 -12.7637 -7.0140 -9.6527 4.8076 13.1638 39.9848 1.0683 -3.8285 -18.6329 0.5697 -4.8340 -13.4357 0.0000 0.0000 0.0000 24.8881 3.6175 -2.6846 -3.5363 -11.5164 34.0418 -1.3283 -2.2609 -22.6917 -0.0320 1.1544 -3.1737 -0.2671 -1.6101 9.1933 1.7779 -2.2769 2.0018 2.2579 -1.1996 -2.9899 4.6396 4.9898 -18.9309 -7.2874 6.9540 18.1097 -2.3391 2.6690 9.2541 0.0000 -0.0000 0.0000 -83.5239 -11.2005 50.4274 114.8817 -57.5263 -81.3692 -0.0000 0.0000 -14.3462 27.6320 19.0181 9.6810 -7.1250 0.0000 -0.0000 -0.6092 51.2376 -0.0936 0.0000 -0.0000 0.0000 67.3096 8.0964 38.7862 -135.5826 50.4799 -98.2116 0.0000 0.0000 0.4610 -33.2999 16.4462 -10.5350 7.1250 -0.0000 -0.0000 -3.6155 -10.5579 -2.8978
0.00 0.00 0.00 -177.5300 -4.9060 173.4350 0.0000 0.0000 0.0000 -11.9414 -4.1905 -8.9067 5.1622 13.5642 41.5188 1.2304 -2.9028 -20.2093 0.4888 -4.4831 -12.4399 0.0000 0.0000 0.0000 25.5775 6.1652 -1.3902 -3.6932 -11.7406 34.8203 -1.4134 1.4719 -22.0511 -0.3117 -3.5894 9.9242 -0.4075 -2.4099 9.9513 2.0247 -3.3385 1.5494 2.7715 -1.7140 -3.8143 4.7193 4.8537 -19.2722 -7.8496 7.5463 19.0013 -2.4171 3.1264 9.6927 0.0000 0.0000 0.0000 -76.5055 -8.0873 35.4377 114.2463 -57.6578 -80.8328 -0.0000 0.0000 -14.8667 27.3811 17.3742 8.7917 -7.1250 0.0000 -0.0000 -0.5559 49.3896 -0.0602 0.0000 0.0000 0.0000 51.7235 16.6338 8.4308 -147.6329 42.8379 -107.0103 0.0000 -0.0000 -0.5034 -33.5308 18.4108 -11.8206 7.1250 -0.0000 -0.0000 -3.4781 -8.2450 -2.9489
0.00 0.00 0.00 -177.6940 -3.5222 173.2590 0.0000 0.0000 0.0000 -11.3381 -2.9155 -7.8295 5.0275 13.4147 40.9413 1.2189 -3.4933 -20.0053 0.5128 -4.5898 -12.7422 0.0000 0.0000 0.0000 26.1236 6.4669 -0.5684 -3.7250 -11.7852 34.9764 -1.4731 2.1721 -22.3477 -0.4379 -4.2463 11.7706 -0.3638 -3.1153 10.2641 1.8882 -4.2941 1.6831 2.7414 -2.1966 -3.8151 4.7871 5.4665 -20.2642 -8.9817 8.6580 19.0201 -2.6355 3.5015 10.0269 -0.0000 -0.0000 0.0000 -74.0693 -2.0192 25.9273 101.5151 -59.4930 -69.9554 -0.0000 0.0000 -9.0746 23.3255 15.0441 6.3861 -7.1250 0.0000 -0.0000 -4.0334 46.2548 -0.1251 -0.0000 -0.0000 0.0000 40.6568 23.6875 -22.3423 -156.4002 34.7382 -112.5227 0.0000 -0.0000 -1.2815 -37.4705 16.3672 -12.1885 7.1250 -0.0000 -0.0000 -6.3242 -9.7713 -5.1917
0.00 0.00 0.00 -176.6570 -15.8453 175.7680 0.0000 0.0000 0.0000 -8.8995 -11.2549 -11.5373 4.8564 13.2203 40.1987 0.6988 -6.5718 -14.9338 0.9869 -6.3230 -17.7244 0.0000 0.0000 0.0000 28.2793 0.3793 -4.3983 -3.1599 -10.9495 32.1097 -1.4540 -3.4271 -24.2352 -0.2703 -3.3446 9.2397 -1.9811 -1.8097 11.3642 0.0455 -2.7337 0.6119 1.6025 -1.3250 -5.6370 2.3328 -0.3598 -20.1975 -5.1603 -0.2059 16.9695 -2.1726 -0.5543 8.6119 0.0000 0.0000 0.0000 -80.5105 4.9351 25.9377 87.7007 -59.9800 -58.0089 -0.0000 0.0000 -6.6888 19.8143 15.3323 5.4421 -7.1250 0.0000 -0.0000 -7.3697 46.0953 -0.2003 0.0000 0.0000 0.0000 49.1821 40.9377 -26.4343 -148.2638 42.3358 -107.4372 0.0000 0.0000 17.4981 -53.1180 9.4048 -12.2862 7.1250 -0.0000 -0.0000 -17.7488 -15.0189 -13.2024
0.00 0.00 0.00 -176.8810 -17.3540 176.2630 0.0000 0.0000 0.0000 -8.9143 -11.9214 -12.7451 4.8526 13.2159 40.1820 0.5606 -6.7561 -13.4468 1.2489 -7.0854 -19.9687 0.0000 0.0000 0.0000 28.0945 0.5774 -5.0603 -3.1174 -10.8827 31.8853 -1.3998 -4.2579 -24.2406 -0.2754 -3.3753 9.3253 -1.4014 -1.3707 11.5452 -0.4316 -2.1302 1.0922 0.6803 -1.0670 -5.2954 1.4763 -1.6464 -21.7390 -4.6396 -1.8018 16.5555 -2.0746 -1.2964 8.6835 -0.0000 0.0000 0.0000 -80.4704 2.1212 27.6434 86.8975 -59.9636 -57.3135 -0.0000 0.0000 -6.7094 20.0897 15.3517 5.5306 -7.1250 0.0000 -0.0000 -7.1186 46.1514 -0.2033 -0.0000 0.0000 0.0000 47.0866 47.9261 -24.5103 -132.2566 52.0438 -95.6167 0.0000 0.0000 22.2126 -54.7084 8.8838 -12.3079 7.1250 -0.0000 -0.0000 -18.8766 -15.3432 -14.0016
0.00 0.00 0.00 -176.8560 -17.6394 176.3680 0.0000 0.0000 0.0000 -8.8214 -11.9136 -13.2208 4.8470 13.2094 40.1574 0.4792 -6.5962 -12.4719 1.4658 -7.6512 -21.6597 0.0000 0.0000 0.0000 28.1315 1.1898 -5.0261 -3.1032 -10.8603 31.8103 -1.4374 -4.0253 -24.4095 -0.5395 -4.7063 13.0726 -0.8762 -1.0448 11.8677 -0.6557 -1.6562 1.1678 0.0823 -0.8511 -5.4260 1.4334 -2.1790 -22.0575 -4.7029 -2.5022 16.4262 -2.1848 -1.6336 8.6681 0.0000 -0.0000 0.0000 -80.4259 1.0825 28.6737 86.6610 -59.9578 -57.1088 -0.0000 0.0000 -6.6318 20.6225 15.6491 5.7963 -7.1250 0.0000 -0.0000 -6.6906 46.5327 -0.2542 0.0000 -0.0000 0.0000 44.4963 51.4185 -25.5220 -118.4279 56.7145 -84.3477 0.0000 0.0000 24.2622 -52.1295 7.9413 -10.0742 7.1250 -0.0000 -0.0000 -17.5231 -17.5043 -12.0190
0.00 0.00 0.00 -176.7570 -17.7540 176.3630 0.0000 0.0000 0.0000 -8.7058 -11.8652 -13.4941 4.8363 13.1970 40.1106 0.4317 -6.4946 -11.8684 1.5244 -7.7960 -22.0961 0.0000 0.0000 0.0000 28.1769 1.4929 -5.0949 -3.0864 -10.8336 31.7208 -1.4434 -3.8286 -24.3545 -0.7051 -5.3669 14.9579 -0.0801 -0.7130 12.1844 -0.9441 -1.1389 1.2209 -0.7488 -0.6215 -5.5702 1.5468 -2.6724 -22.0499 -4.7586 -3.2015 16.1355 -2.3068 -1.9569 8.5381 0.0000 -0.0000 0.0000 -80.1602 0.3985 29.7230 86.7329 -59.9596 -57.1710 -0.0000 0.0000 -6.4705 20.4501 15.4717 5.6807 -7.1250 0.0000 -0.0000 -6.8108 46.3241 -0.2236 0.0000 -0.0000 0.0000 41.0176 54.7805 -27.7805 -100.3425 59.5919 -68.9446 0.0000 0.0000 26.6521 -46.9586 6.6853 -7.1058 7.1250 -0.0000 -0.0000 -14.4120 -20.3665 -8.7734
0.00 0.00 0.00 -177.0160 -18.5854 176.4940 0.0000 0.0000 0.0000 -9.0548 -12.1019 -13.9948 4.8052 13.1610 39.9743 0.4201 -6.6377 -11.7442 1.2548 -7.1015 -20.0165 0.0000 0.0000 0.0000 27.8495 1.5569 -5.3853 -3.0517 -10.7782 31.5356 -1.3981 -4.3515 -24.2780 -0.6056 -4.9813 13.8553 0.8506 -0.2814 12.6388 -1.4104 -0.4831 1.3090 -1.8738 -0.3332 -5.7317 1.8274 -3.5946 -21.3285 -5.0470 -4.5038 15.0420 -2.5666 -2.5766 7.9811 -0.0000 0.0000 0.0000 -80.0958 -0.7635 31.8300 87.0695 -59.9675 -57.4624 -0.0000 0.0000 -5.9593 20.3591 15.1851 5.5518 -7.1250 0.0000 -0.0000 -6.8304 46.0123 -0.1714 -0.0000 0.0000 0.0000 30.7253 59.5345 -34.6030 -64.8542 57.4705 -38.4080 0.0000 0.0000 29.1935 -25.3253 0.8632 -0.4085 7.1250 -0.0000 -0.0000 0.9707 -29.0242 0.3779
0.00 0.00 0.00 -176.9530 -24.6315 176.8850 0.0000 0.0000 0.0000 -8.5939 -13.4150 -15.7494 4.5649 12.8764 38.9075 0.1794 -8.8259 -9.1330 0.7187 -5.4175 -15.1034 0.0000 0.0000 0.0000 28.4598 0.3090 -6.1724 -2.9035 -10.5371 30.7343 -1.3305 -7.2406 -25.4975 -0.4761 -4.4250 12.2755 1.5620 -0.1251 12.3100 -1.3297 -0.1570 1.2823 -2.2478 -0.1795 -5.5650 2.0140 -5.4708 -20.2379 -4.4843 -7.1988 14.6001 -2.6751 -3.7782 7.5522 0.0000 -0.0000 0.0000 -80.9531 -0.1285 37.4515 90.9711 -59.9964 -60.8410 -0.0000 0.0000 -5.0668 20.4610 14.8734 5.4706 -7.1250 0.0000 -0.0000 -6.6668 45.6991 -0.1155 0.0000 -0.0000 0.0000 45.3542 60.0047 -6.6864 -48.2650 52.2713 -24.7952 0.0000 0.0000 26.0102 4.0042 -7.2712 -0.5076 7.1250 -0.0000 -0.0000 25.4333 -36.0993 6.0630
0.00 0.00 0.00 -176.8830 -25.5722 176.1240 0.0000 0.0000 0.0000 -8.9933 -13.0830 -14.9282 4.4761 12.7684 38.5075 0.3249 -8.1159 -10.8660 0.5173 -4.6097 -12.7987 0.0000 0.0000 0.0000 28.7516 -0.6930 -6.2696 -3.0908 -10.8405 31.7439 -1.3974 -7.3619 -26.0794 -0.5132 -4.5920 12.7483 1.5803 0.1888 12.3472 -0.3267 0.2994 1.7261 -1.2784 0.0539 -5.0997 1.2730 -5.2477 -20.0306 -5.6476 -6.5117 14.7060 -2.8620 -3.6236 7.5662 0.0000 -0.0000 0.0000 -83.0517 1.5971 37.3548 88.3631 -59.9899 -58.5825 -0.0000 0.0000 -3.9883 19.3793 14.4308 5.0097 -7.1250 0.0000 -0.0000 -7.5652 45.1025 -0.0193 0.0000 -0.0000 0.0000 69.3643 48.6196 25.5099 -58.0727 55.7741 -32.7424 0.0000 0.0000 25.1115 -14.0372 4.4684 -1.1159 7.1250 -0.0000 -0.0000 9.4685 -25.3645 4.5589
0.00 0.00 0.00 -177.6170 -25.7088 175.3960 0.0000 0.0000 0.0000 -9.8499 -12.0939 -14.1116 4.5548 12.8642 38.8622 0.3132 -8.1007 -10.7092 0.6556 -5.1790 -14.4197 0.0000 0.0000 0.0000 28.4322 -0.6041 -4.8481 -3.1465 -10.9285 32.0392 -1.5127 -7.7093 -27.1457 -0.6416 -5.1244 14.2638 1.8965 0.1946 11.5428 0.6282 0.3270 2.4223 -0.4572 0.0644 -3.9279 0.9411 -4.9025 -19.5609 -6.0860 -5.8917 15.2505 -2.8875 -3.4038 7.6917 0.0000 -0.0000 0.0000 -85.4055 3.8193 33.2062 67.5113 -58.0000 -40.6549 -0.0000 0.0000 -4.2078 19.0577 14.1291 4.8203 -7.1250 0.0000 -0.0000 -7.7923 44.7504 0.0483 0.0000 -0.0000 0.0000 89.8027 29.6203 44.3385 -23.3939 34.5167 -7.3603 0.0000 0.0000 15.1750 -0.6641 13.1819 -0.1515 7.1250 -0.0000 -0.0000 18.2055 -17.1651 12.6823
0.00 0.00 0.00 -178.2130 -25.1931 175.1160 0.0000 0.0000 0.0000 -10.3244 -11.7313 -13.8140 4.6911 13.0273 39.4707 0.2980 -8.2552 -10.5575 0.5463 -4.7351 -13.1545 0.0000 0.0000 0.0000 28.0920 -0.0122 -4.1327 -3.2199 -11.0427 32.4242 -1.5749 -7.9130 -27.7175 -0.6613 -5.2009 14.4826 2.2474 0.6591 11.4953 1.3086 0.9358 3.0548 -0.0308 0.3470 -3.2329 0.7000 -5.0252 -20.0189 -6.8970 -5.8867 14.4988 -3.1093 -3.5054 7.5048 -0.0000 -0.0000 0.0000 -86.0575 1.4400 31.0236 45.8107 -51.1595 -22.8685 -0.0000 0.0000 -2.5695 18.6897 14.8033 4.9399 -7.1250 0.0000 -0.0000 -8.2834 45.4041 -0.0832 -0.0000 -0.0000 0.0000 95.5869 25.8040 5.8957 -7.4482 12.6545 -0.8270 0.0000 0.0000 30.5225 -8.6527 4.2864 -0.6517 7.1250 -0.0000 -0.0000 13.4879 -25.6105 6.5045
0.00 0.00 0.00 -179.7050 -21.8462 175.8540 0.0000 0.0000 0.0000 -11.3965 -10.2677 -15.3481 5.4065 13.8274 42.5506 0.1021 -8.8093 -7.9489 0.8874 -6.0047 -16.7981 0.0000 0.0000 0.0000 26.1779 1.9428 -3.0225 -3.2101 -11.0276 32.3731 -1.6066 -7.0536 -27.3877 -0.8147 -5.7598 16.0890 4.1337 -1.4159 12.9125 2.5353 -1.5706 2.9922 0.5890 -0.9610 -4.1163 2.3065 -1.5897 -20.6571 -8.8251 -1.4091 13.6727 -3.4977 -1.5060 7.5195 -0.0000 -0.0000 0.0000 -87.8747 4.3673 1.6986 11.0450 -18.3573 -1.7901 -0.0000 -0.0000 5.4182 15.7499 21.2102 5.8260 -7.1250 0.0000 -0.0000 -13.0749 51.4742 -2.1153 -0.0000 -0.0000 0.0000 83.7567 -5.7427 12.7558 -13.2240 21.6145 -2.5352 0.0000 0.0000 10.3924 -6.2666 5.2622 -0.5770 7.1250 -0.0000 -0.0000 15.1323 -24.6717 7.6936
